<?xml version="1.0"?>
<svg xmlns="http://www.w3.org/2000/svg" viewBox="0 0 50 50">
    <path style="line-height:normal;text-indent:0;text-align:start;text-decoration-line:none;text-decoration-style:solid;text-decoration-color:#000;text-transform:none;block-progression:tb;isolation:auto;mix-blend-mode:normal" d="M 25 2 C 24.286281 2 23.573082 2.1805744 22.931641 2.5410156 L 6.0898438 12.003906 C 4.8068872 12.724831 4 14.073596 4 15.537109 L 4 34.464844 C 4 35.928357 4.8068871 37.277122 6.0898438 37.998047 L 22.931641 47.460938 C 24.214523 48.18182 25.785477 48.18182 27.068359 47.460938 L 43.912109 37.998047 C 45.194387 37.276192 46 35.926404 46 34.462891 L 46 15.537109 C 46 14.073596 45.193113 12.724831 43.910156 12.003906 L 27.068359 2.5410156 C 26.426918 2.1805744 25.713719 2 25 2 z M 25 4 C 25.376781 4 25.754285 4.094644 26.089844 4.2832031 L 42.931641 13.746094 C 43.602684 14.123169 44 14.804622 44 15.537109 L 44 24 L 42 24 L 42 22 L 40 22 L 40 24 L 38 24 L 38 26 L 40 26 L 40 28 L 42 28 L 42 26 L 44 26 L 44 34.462891 C 44 35.195378 43.601409 35.875761 42.929688 36.253906 L 26.089844 45.716797 C 25.418726 46.093914 24.581274 46.093914 23.910156 45.716797 L 7.0683594 36.253906 C 6.3973159 35.876831 6 35.197331 6 34.464844 L 6 15.537109 C 6 14.804622 6.3973159 14.123169 7.0683594 13.746094 L 23.910156 4.2832031 C 24.245715 4.0946444 24.623219 4 25 4 z M 25 12 C 17.84066 12 12 17.84066 12 25 C 12 32.15934 17.84066 38 25 38 C 29.089524 38 32.885685 36.093227 35.337891 32.863281 L 36.023438 31.960938 L 29.966797 28.455078 L 29.423828 29.046875 C 28.293761 30.281546 26.690182 31 25 31 C 21.682314 31 19 28.317686 19 25 C 19 21.682314 21.682314 19 25 19 C 26.690182 19 28.293761 19.718454 29.423828 20.953125 L 29.966797 21.544922 L 36.023438 18.039062 L 35.337891 17.136719 C 32.885685 13.906773 29.089524 12 25 12 z M 25 14 C 28.075335 14 30.88585 15.314982 32.945312 17.509766 L 30.201172 19.099609 C 28.756236 17.830406 26.960501 17 25 17 C 20.597686 17 17 20.597686 17 25 C 17 29.402314 20.597686 33 25 33 C 26.960501 33 28.756236 32.169594 30.201172 30.900391 L 32.945312 32.490234 C 30.885849 34.685018 28.075335 36 25 36 C 18.92534 36 14 31.07466 14 25 C 14 18.92534 18.92534 14 25 14 z M 33 22 L 33 24 L 31 24 L 31 26 L 33 26 L 33 28 L 35 28 L 35 26 L 37 26 L 37 24 L 35 24 L 35 22 L 33 22 z" font-weight="400" font-family="sans-serif" white-space="normal" overflow="visible"/>
</svg>
