<?xml version="1.0" encoding="iso-8859-1"?>
<!-- Generator: Adobe Illustrator 19.0.0, SVG Export Plug-In . SVG Version: 6.00 Build 0)  -->
<svg version="1.1" id="Capa_1" xmlns="http://www.w3.org/2000/svg" xmlns:xlink="http://www.w3.org/1999/xlink" x="0px" y="0px"
	 viewBox="0 0 512 512" style="enable-background:new 0 0 512 512;" xml:space="preserve">
<g>
	<g>
		<path d="M309.194,203.211h-10.904c-4.146,0-7.505,3.36-7.505,7.505v39.917c0,4.144,3.359,7.504,7.505,7.504h10.904
			c30.37,0,33.648-19.354,33.648-27.675C342.842,222.268,339.564,203.211,309.194,203.211z M305.796,243.126v-24.905
			c11.7,0,22.036,0.602,22.036,12.24C327.832,242.402,317.781,243.126,305.796,243.126z"/>
	</g>
</g>
<g>
	<g>
		<path d="M214.498,274.244l-15.381-49.687c-2.184-7.05-12.419-7.009-14.626-0.05l-15.711,49.53
			c-1.201,3.789,0.76,7.856,4.471,9.277c11.328,4.338,25.108,4.411,36.649,0.199C213.658,282.143,215.68,278.066,214.498,274.244z
			 M185.457,271.111l6.254-19.718l6.118,19.768C193.774,271.776,189.463,271.757,185.457,271.111z"/>
	</g>
</g>
<g>
	<g>
		<path d="M499.975,124.053H222.141c-4.146,0-7.505,3.36-7.505,7.505s3.359,7.505,7.505,7.505h270.593L380.734,251.052
			c5.268-17.685,4.566-48.825-17.33-65.639c-12.784-9.817-31.466-14.588-57.114-14.588l-49.558-0.009h-0.001
			c-4.142,0-7.505,3.36-7.505,7.505v75.537l-28.703-78.126c-1.086-2.954-3.899-4.917-7.045-4.917h-42.912
			c-3.128,0-5.928,1.939-7.026,4.868l-30.369,80.927c-18.264-24.691-58.335-25.778-68.896-37.26
			c1.23-1.087,5.282-3.155,14.229-2.684c8.41,0.428,16.354,0.834,33.298,9.025c3.542,1.711,7.808,0.397,9.773-3.014
			c18.605-32.333,19.17-31.756,17.942-35.875c-0.588-1.973-1.961-3.619-3.798-4.55c-38.343-19.445-97.392-22.108-120.71,14.069
			v-57.258h172.107c4.146,0,7.505-3.36,7.505-7.505c0-4.145-3.359-7.505-7.505-7.505H12.012C5.389,124.053,0,129.44,0,136.063
			V380.44c0,4.145,3.359,7.505,7.505,7.505h179.612c4.146,0,7.505-3.36,7.505-7.505c0-4.145-3.359-7.505-7.505-7.505H15.01v-44.319
			c26.942,14.023,63.863,19.163,91.015,6.78c1.238,2.651,3.893,4.334,6.803,4.334h44.98c3.241,0,6.116-2.08,7.129-5.16l5.288-16.071
			c13.323,3.172,28.211,3.415,42.442,0.138l5.102,15.884c0.997,3.104,3.885,5.21,7.146,5.21h67.135l-33.208,33.206h-36.7
			c-4.146,0-7.505,3.36-7.505,7.505c0,4.145,3.359,7.505,7.505,7.505h37.942c3.163,0,6.259-1.283,8.492-3.517L508.47,144.558
			C516.018,137.007,510.662,124.053,499.975,124.053z M23.299,286.185L15.01,302.63v-51.798
			c10.409,15.309,30.365,23.484,48.172,28.982c5.552,1.727,18.555,5.772,19.534,8.564c-0.084,4.606-7.253,5.282-11.831,5.392
			c-12.255,0.212-21.336-1.376-37.068-10.669C30.078,280.893,25.251,282.312,23.299,286.185z M305.796,325.985v-33.782
			c10.403,0,23.458,0.514,38.355-4.569L305.796,325.985z M314.267,277.192H298.29c-4.146,0-7.505,3.36-7.505,7.505v40.023h-60.397
			l-5.626-17.512c-1.267-3.944-5.492-6.113-9.432-4.853c-15.743,5.036-33.055,4.667-47.624-0.16
			c-3.937-1.305-8.194,0.836-9.49,4.778l-5.839,17.746h-28.728l1.153-3.085c1.2-3.207,0.077-6.819-2.73-8.781
			c-10.549-7.372-10.473,14.087-51.265,14.504c-15.867,0-31.66-3.664-46.084-10.649l8.47-16.802
			c14.796,7.607,25.458,9.089,38.005,8.871c19.384-0.467,26.352-10.593,26.527-20.13c0.529-30.511-76.378-16.76-75.519-65.867
			c0.545-35.993,49.59-50.667,99.495-30.417l-9.725,16.901c-30.234-13.031-62.706-9.459-63.051,10.029
			c-0.143,9.721,10.199,17.61,32.586,24.841c22.671,7.182,41.682,14.683,44.696,33.808c1.196,7.6,11.747,8.645,14.44,1.469
			l35.119-93.585h32.473l41.446,112.813c2.872,7.812,14.55,5.767,14.55-2.588V185.827c57.16,0.01,104.137-5.533,104.137,46.152
			C368.372,260.712,348.651,277.192,314.267,277.192z"/>
	</g>
</g>
<g>
</g>
<g>
</g>
<g>
</g>
<g>
</g>
<g>
</g>
<g>
</g>
<g>
</g>
<g>
</g>
<g>
</g>
<g>
</g>
<g>
</g>
<g>
</g>
<g>
</g>
<g>
</g>
<g>
</g>
</svg>
